<svg width="261" height="55" viewBox="0 0 261 55" fill="none" xmlns="http://www.w3.org/2000/svg">
<path d="M77.2451 27.4199C77.2451 13.9701 85.3506 3.99414 98.6223 3.99414C108.153 3.99414 114.299 8.53679 117.238 15.1281L110.023 18.78C108.064 14.1483 104.323 11.2089 98.4441 11.2089C90.2496 11.2089 85.2616 17.4439 85.2616 27.4199C85.2616 37.485 90.8731 43.5419 99.513 43.5419C106.015 43.5419 111.538 39.8009 111.983 31.9626H96.0392V25.104H119.287V49.866H112.339V43.4528C109.934 47.9955 105.124 50.8457 98.266 50.8457C85.4397 50.7567 77.2451 40.8697 77.2451 27.4199Z" fill="black"/>
<path d="M123.74 33.3878C123.74 23.3227 130.153 16.1079 140.308 16.1079C149.571 16.1079 156.251 22.8773 156.251 32.408C156.251 33.8331 156.162 35.2583 156.073 35.9709H131.133C131.935 40.9589 135.409 44.1654 140.129 44.1654C143.87 44.1654 146.008 42.384 147.344 40.0682L153.757 43.8091C150.373 49.3316 145.385 50.8458 140.129 50.8458C130.51 50.7567 123.74 43.8092 123.74 33.3878ZM148.858 30.1812C148.324 26.173 145.296 22.6101 140.04 22.6101C135.052 22.6101 132.113 25.6386 131.222 30.1812H148.858Z" fill="black"/>
<path d="M160.793 4.97412H168.008V49.8662H160.793V4.97412Z" fill="black"/>
<path d="M171.659 40.4244C171.659 33.2096 177.983 30.1812 184.753 30.1812H193.66V28.7561C193.66 24.7479 190.899 22.6992 186.979 22.6992C183.149 22.6992 180.923 24.8369 179.854 27.1528L173.352 23.1446C175.667 19.1364 180.299 16.1079 186.801 16.1079C195.441 16.1079 200.875 20.9178 200.875 27.7763V41.2261C200.875 43.0075 201.498 43.631 203.458 43.631H203.903V49.7769H201.053C197.401 49.7769 195.352 48.53 194.729 45.6797C193.036 48.53 189.473 50.5786 184.307 50.5786C177.894 50.5786 171.659 47.8174 171.659 40.4244ZM185.287 44.5218C189.295 44.5218 193.66 42.7403 193.66 37.1288V35.8818H185.554C181.101 35.8818 179.052 37.5742 179.052 40.1572C178.963 42.7403 181.457 44.5218 185.287 44.5218Z" fill="black"/>
<path d="M209.695 41.0481V23.2338H203.549V17.1769H209.695V4.97412H216.91V17.1769H225.639V23.2338H216.91V39.9792C216.91 42.8295 217.889 43.7202 221.096 43.7202H225.639V49.7771H219.136C212.99 49.8662 209.695 47.0159 209.695 41.0481Z" fill="black"/>
<path d="M227.242 33.4769C227.242 22.6101 234.457 16.1079 244.166 16.1079C253.875 16.1079 261 22.6101 261 33.4769C261 44.3436 253.786 50.8458 244.166 50.8458C234.457 50.8458 227.242 44.3436 227.242 33.4769ZM244.166 44.2545C249.955 44.2545 253.696 40.0682 253.696 33.4769C253.696 26.9746 249.955 22.6992 244.166 22.6992C238.376 22.6992 234.546 26.9746 234.546 33.4769C234.546 40.0682 238.465 44.2545 244.166 44.2545Z" fill="black"/>
<path d="M47.0484 4.97381L43.8419 8.18036L40.6353 11.387L35.8254 6.57708L31.0155 1.76723C30.1248 0.87651 28.9669 0.431152 27.898 0.431152C26.7401 0.431152 25.5822 0.87651 24.7805 1.76723L18.2783 8.26946L11.7761 14.7717C10.8854 15.6624 10.44 16.8203 10.44 17.8892C10.44 19.0471 10.8854 20.205 11.7761 21.0067L19.7925 29.0231L27.809 37.0396L34.2221 30.6264L40.6353 24.2132L42.2386 25.8166L43.8419 27.4198L35.8254 35.4363L27.809 43.4527L18.1893 33.833L8.56955 24.2132C7.67883 23.3225 6.52087 22.8772 5.36294 22.8772C4.20501 22.8772 3.0471 23.3225 2.15639 24.2132C1.26567 25.104 0.820312 26.2619 0.820312 27.4198C0.820312 28.5778 1.26567 29.7357 2.15639 30.6264L13.3794 41.8494L24.6024 53.0724C25.4931 53.9631 26.6511 54.4085 27.7199 54.4085C28.8779 54.4085 30.0358 53.9631 30.8374 53.0724L42.1495 41.7603L53.4616 30.4482C54.3523 29.5575 54.7977 28.3996 54.7977 27.3307C54.7977 26.1728 54.3523 25.0149 53.4616 24.2132L50.255 21.0067L47.0484 17.8001L50.255 14.5935L53.4616 11.387C54.3523 10.4963 54.7977 9.33829 54.7977 8.18036C54.7977 7.02243 54.3523 5.86452 53.4616 4.97381C52.5709 4.08309 51.413 3.63773 50.255 3.63773C49.0971 3.63773 47.9391 4.08309 47.0484 4.97381ZM27.809 24.2132L24.6024 21.0067L21.3958 17.8001L24.6024 14.5935L27.809 11.387L31.0155 14.5935L34.2221 17.8001L31.0155 21.0067L27.809 24.2132Z" fill="black"/>
</svg>
