<svg width="100" height="28" viewBox="0 0 100 28" fill="none" xmlns="http://www.w3.org/2000/svg">
<path d="M13.0005 12.4411L9.82496 9.26557L13.0005 6.09035L16.1759 9.26557L13.0005 12.4411ZM22.5257 9.26557L25.3423 6.44924C26.2192 5.57143 26.2192 4.15033 25.3423 3.27372C24.4657 2.39681 23.0446 2.39681 22.1671 3.27372L19.3505 6.09035L14.5876 1.32738C13.711 0.45077 12.2899 0.45077 11.413 1.32738L5.06233 7.67841C4.18543 8.55502 4.18543 9.97612 5.06233 10.853L13.0005 18.7912L19.3505 12.4411L20.5797 13.6703L13.0005 21.2496L3.83316 12.0822C2.95626 11.2056 1.53518 11.2056 0.657675 12.0822C-0.219225 12.9591 -0.219225 14.3808 0.657675 15.2577L11.413 26.0122C12.2899 26.8891 13.711 26.8891 14.5876 26.0122L25.3423 15.2577C26.2192 14.3808 26.2192 12.9591 25.3423 12.0822L22.5257 9.26557Z" fill="white"/>
<path d="M48.6429 12.1242V19.3638H46.8592V17.2379C46.1142 18.7317 44.5658 19.6509 42.3704 19.6509C38.4698 19.6509 36 16.6824 36 12.6605C36 8.63834 38.4306 5.66992 42.4096 5.66992C45.2909 5.66992 47.1532 7.02989 48.0155 8.92593L46.1338 9.84508C45.5065 8.40875 44.2916 7.48934 42.3704 7.48934C39.7242 7.48934 38.0581 9.48114 38.0581 12.6605C38.0581 15.878 39.8614 17.8315 42.6645 17.8315C44.801 17.8315 46.6435 16.5484 46.7808 13.867H41.6454V12.1242H48.6429Z" fill="white"/>
<path d="M52.1513 13.5989H58.0905C57.9535 12.239 56.9341 10.9942 55.1112 10.9942C53.4057 10.9942 52.4064 12.0285 52.1513 13.5989ZM59.9136 15.0736H52.1121C52.3474 16.8358 53.5236 17.9848 55.1504 17.9848C56.3852 17.9848 57.0909 17.4293 57.5614 16.6057L59.2275 17.5442C58.2277 19.1913 56.6989 19.651 55.1306 19.651C52.2692 19.651 50.1912 17.5825 50.1912 14.48C50.1912 11.4922 52.1317 9.34715 55.17 9.34715C57.9336 9.34715 59.9724 11.3198 59.9724 14.1161C59.9724 14.5375 59.9332 14.9012 59.9136 15.0736Z" fill="white"/>
<path d="M61.5206 5.95729H63.4022V19.3639H61.5206V5.95729Z" fill="white"/>
<path d="M71.6935 15.5907V15.0544H69.0279C67.4596 15.0544 66.7539 15.6674 66.7539 16.5485C66.7539 17.4293 67.6363 18.0231 68.9299 18.0231C70.2627 18.0231 71.6935 17.4101 71.6935 15.5907ZM74.5946 17.7932V19.3639H73.8303C72.6933 19.3639 72.0856 18.9617 71.9287 18.0806C71.419 18.9425 70.3215 19.5935 68.6944 19.5935C66.7345 19.5935 64.8528 18.751 64.8528 16.5868C64.8528 14.4989 66.7149 13.5606 68.8123 13.5606H71.6935V13.0434C71.6935 11.6837 70.7724 11.0133 69.4396 11.0133C68.2048 11.0133 67.4596 11.6454 67.0874 12.4308L65.3819 11.4539C66.068 10.2283 67.4792 9.34715 69.4001 9.34715C71.9875 9.34715 73.5752 10.7643 73.5752 12.7944V17.0079C73.5752 17.602 73.7908 17.7932 74.3988 17.7932H74.5946Z" fill="white"/>
<path d="M78.456 11.2049V16.4335C78.456 17.4676 78.7893 17.8124 79.9848 17.8124H81.3179V19.3636H79.4751C77.5738 19.3636 76.5743 18.5208 76.5743 16.7397V11.2049H74.5943V9.65336H76.5743V5.95733H78.456V9.65336H81.3179V11.2049H78.456Z" fill="white"/>
<path d="M90.0987 14.499C90.0987 12.3923 88.8443 11.0131 86.943 11.0131C85.0218 11.0131 83.7481 12.3923 83.7481 14.499C83.7481 16.644 85.0218 18.004 86.943 18.004C88.8443 18.004 90.0987 16.644 90.0987 14.499ZM81.8466 14.499C81.8466 11.3007 84.0226 9.34723 86.943 9.34723C89.8242 9.34723 92 11.3007 92 14.499C92 17.7167 89.8242 19.6699 86.943 19.6699C84.0226 19.6699 81.8466 17.7167 81.8466 14.499Z" fill="white"/>
</svg>
